<?xml version="1.0" ?><svg id="Layer_1" style="enable-background:new 0 0 62 62;" version="1.1" viewBox="0 0 62 62" xml:space="preserve" xmlns="http://www.w3.org/2000/svg" xmlns:xlink="http://www.w3.org/1999/xlink"><style type="text/css">
	.st0{fill:#5FD2FF;}
	.st1{fill:#FFFFFF;}
	.st2{fill:#0082ED;}
	.st3{fill:#2BA8FC;}
	.st4{fill:#CECECE;}
	.st5{fill:#F92B75;}
	.st6{fill:#3BB0FF;}
	.st7{fill:#CE004F;}
	.st8{fill:none;stroke:#ED0C68;stroke-width:5;stroke-linecap:round;stroke-linejoin:round;stroke-miterlimit:10;}
	.st9{fill:#ED0C68;}
	.st10{fill:#78DED4;}
	.st11{fill:#1E5363;}
	.st12{fill:#54C8E8;}
	.st13{fill:#F4F4F4;}
	.st14{fill:#0C82EB;}
	.st15{fill:#00B2E3;}
	.st16{fill:#68A2B9;}
	.st17{fill:#A2C5D3;}
	.st18{fill:#76777A;}
	.st19{fill:#A7A8A9;}
	.st20{fill:#D6D6D6;}
	.st21{fill:none;stroke:#F92B75;stroke-width:5;stroke-linecap:round;stroke-linejoin:round;stroke-miterlimit:10;}
	.st22{fill:#FD4A5C;}
	.st23{fill:#FF8E9F;}
	.st24{fill:none;stroke:#F458A3;stroke-width:5;stroke-linecap:round;stroke-linejoin:round;stroke-miterlimit:10;}
	.st25{fill:#FFB259;}
	.st26{fill:#F32735;}
	.st27{fill:#FF9E18;}
	.st28{fill:#FFC27A;}
	.st29{fill:#FFC56D;}
	.st30{fill:none;stroke:#FD4A5C;stroke-width:5;stroke-linecap:round;stroke-linejoin:round;stroke-miterlimit:10;}
	.st31{fill:#0069A7;}
	.st32{fill:#D8D8D8;}
	.st33{fill:#8CB7C9;}
	.st34{fill:#65BAAF;}
	.st35{fill:#00AF9A;}
	.st36{fill:#00C4B3;}
	.st37{fill:#19D3C5;}
	.st38{fill:none;stroke:#54C8E8;stroke-width:5;stroke-linecap:round;stroke-linejoin:round;stroke-miterlimit:10;}
	.st39{fill:#8331A7;}
	.st40{fill:#009383;}
	.st41{fill:#98989A;}
	.st42{fill:#636569;}
	.st43{fill:#898A8D;}
	.st44{fill:#FFB548;}
	.st45{fill:none;stroke:#FFB548;stroke-width:5;stroke-linecap:round;stroke-linejoin:round;stroke-miterlimit:10;}
	.st46{fill:#ED40A9;}
	.st47{fill:#CB007B;}
	.st48{fill:#E50695;}
	.st49{fill:#D7282F;}
	.st50{fill:#E5E5E5;}
	.st51{fill:#FFA4B4;}
	.st52{fill:#F6A7D7;}
	.st53{fill:#F478C4;}
	.st54{fill:#E0C7E6;}
	.st55{fill:#B980D0;}
	.st56{fill:#D9B7E2;}
	.st57{fill:#BADF93;}
	.st58{fill:#4C9C2E;}
	.st59{fill:#3DAE2B;}
	.st60{fill:#AADA91;}
	.st61{fill:#6ABF4B;}
	.st62{fill:#EFB8A9;}
	.st63{fill:#FECB8B;}
	.st64{fill:#BDE8EF;}
	.st65{fill:#CCA1DD;}
	.st66{fill:#B2B2B2;}
	.st67{fill:none;stroke:#FF8300;stroke-width:5;stroke-linecap:round;stroke-linejoin:round;stroke-miterlimit:10;}
	.st68{fill:none;stroke:#FF9E18;stroke-width:5;stroke-linecap:round;stroke-linejoin:round;stroke-miterlimit:10;}
	.st69{fill:#96DAEA;}
	.st70{fill:#FF8300;}
	.st71{fill:none;stroke:#6ABF4B;stroke-width:5;stroke-linecap:round;stroke-linejoin:round;stroke-miterlimit:10;}
	.st72{fill:none;}
	.st73{fill:#444444;}
	.st74{fill:#FDCF85;}
</style><g><circle class="st74" cx="31" cy="31" r="28.5"/><g><path class="st43" d="M31,16.04c-1.38,0-2.5-1.12-2.5-2.5v-3.07c0-1.38,1.12-2.5,2.5-2.5s2.5,1.12,2.5,2.5v3.07    C33.5,14.92,32.38,16.04,31,16.04z"/><path class="st43" d="M31,54.04c-1.38,0-2.5-1.12-2.5-2.5v-3.07c0-1.38,1.12-2.5,2.5-2.5s2.5,1.12,2.5,2.5v3.07    C33.5,52.92,32.38,54.04,31,54.04z"/></g><g><path class="st43" d="M13.54,33.5h-3.07c-1.38,0-2.5-1.12-2.5-2.5s1.12-2.5,2.5-2.5h3.07c1.38,0,2.5,1.12,2.5,2.5    S14.92,33.5,13.54,33.5z"/><path class="st43" d="M51.54,33.5h-3.07c-1.38,0-2.5-1.12-2.5-2.5s1.12-2.5,2.5-2.5h3.07c1.38,0,2.5,1.12,2.5,2.5    S52.92,33.5,51.54,33.5z"/></g><path class="st27" d="M31,62C13.91,62,0,48.09,0,31S13.91,0,31,0s31,13.91,31,31S48.09,62,31,62z M31,5C16.66,5,5,16.66,5,31   s11.66,26,26,26s26-11.66,26-26S45.34,5,31,5z"/><path class="st44" d="M2.5,33.5C1.12,33.5,0,32.38,0,31C0,13.91,13.91,0,31,0c1.38,0,2.5,1.12,2.5,2.5S32.38,5,31,5   C16.66,5,5,16.66,5,31C5,32.38,3.88,33.5,2.5,33.5z"/><g><path class="st22" d="M24.99,39.52c-0.64,0-1.28-0.24-1.77-0.73c-0.98-0.98-0.98-2.56,0-3.54l6.02-6.02    c0.98-0.98,2.56-0.98,3.54,0c0.98,0.98,0.98,2.56,0,3.54l-6.02,6.02C26.27,39.28,25.63,39.52,24.99,39.52z"/><path class="st22" d="M41.03,43.55c-0.64,0-1.28-0.24-1.77-0.73L29.22,32.77c-0.98-0.98-0.98-2.56,0-3.54    c0.98-0.98,2.56-0.98,3.54,0L42.8,39.28c0.98,0.98,0.98,2.56,0,3.54C42.31,43.3,41.67,43.55,41.03,43.55z"/></g><circle class="st25" cx="31" cy="31" r="3"/></g></svg>